/* XPM */
static char * not_selected_xpm[] = {
"17 17 2 1",
" 	g #FFFFFF",
".	g #000000",
"                 ",
"  .............  ",
" .             . ",
" .             . ",
" .             . ",
" .             . ",
" .             . ",
" .             . ",
" .             . ",
" .             . ",
" .             . ",
" .             . ",
" .             . ",
" .             . ",
" .             . ",
"  .............  ",
"                 "};
