/* XPM */
static char * not_selected_sm_xpm[] = {
"16 16 84 1",
" 	c None",
".	c #F4F4F6",
"+	c #F5F5F7",
"@	c #E9E9EB",
"#	c #DDDDDF",
"$	c #D5D5D7",
"%	c #D7D7D9",
"&	c #E0E0E2",
"*	c #EDEDEF",
"=	c #F1F1F3",
"-	c #8C8C8E",
";	c #6B6B6C",
">	c #A9A9AB",
",	c #C4C4C5",
"'	c #C0C0C1",
")	c #9D9D9E",
"!	c #575757",
"~	c #B2B2B3",
"{	c #FAFAFC",
"]	c #E2E2E4",
"^	c #B9B9BA",
"/	c #F8F8FA",
"(	c #F3F3F5",
"_	c #F4F4F5",
":	c #F7F7F9",
"<	c #929294",
"[	c #7C7C7D",
"}	c #EFEFF1",
"|	c #EFEFF0",
"1	c #545455",
"2	c #DEDEDF",
"3	c #F5F5F8",
"4	c #FFFFFF",
"5	c #F6F6F8",
"6	c #C7C7C9",
"7	c #848485",
"8	c #FBFBFD",
"9	c #7E7E7F",
"0	c #C1C1C3",
"a	c #C0C0C2",
"b	c #E6E6E8",
"c	c #787879",
"d	c #F9F9FB",
"e	c #ECECEE",
"f	c #B9B9BB",
"g	c #818182",
"h	c #C4C4C6",
"i	c #D3D3D4",
"j	c #FCFCFC",
"k	c #A4A4A5",
"l	c #C5C5C7",
"m	c #D1D1D3",
"n	c #F2F2F3",
"o	c #9F9FA1",
"p	c #D8D8DA",
"q	c #B1B1B2",
"r	c #777778",
"s	c #E7E7E9",
"t	c #69696A",
"u	c #5F5F60",
"v	c #969698",
"w	c #ABABAC",
"x	c #D2D2D4",
"y	c #676769",
"z	c #D1D1D2",
"A	c #B3B3B4",
"B	c #A0A0A2",
"C	c #EBEBED",
"D	c #747475",
"E	c #939394",
"F	c #F0F0F2",
"G	c #E3E3E4",
"H	c #686869",
"I	c #A1A1A3",
"J	c #B4B4B6",
"K	c #515151",
"L	c #89898B",
"M	c #A6A6A7",
"N	c #78787A",
"O	c #606060",
"P	c #D3D3D5",
"Q	c #F0F0F1",
"R	c #E5E5E7",
"S	c #DFDFE1",
"....+@#$%&*+....",
"..+=-;>,')!~{...",
".+]!^/+(_:.<[}..",
".|1234444445678.",
".9044444444457a+",
"bcd4444444444e1=",
"$f(4444444444{gb",
"hi(j444444444.k&",
"lmn4444444444.o&",
"pq+44444444448rs",
"@t/4444444444]u(",
"+vw544444444.tx+",
".5yz5444444.ABd.",
"..CDEFd5+8GHI(..",
"...{JKLMoNOPd...",
"....5QRS&s(+...."};
