/* XPM */
static char * selected_sm_xpm[] = {
"16 15 100 2",
"  	c None",
". 	c #F4F4F6",
"+ 	c #F5F5F7",
"@ 	c #EBEBED",
"# 	c #E6E6E8",
"$ 	c #E7E7E9",
"% 	c #F0F0F2",
"& 	c #F6F6F8",
"* 	c #F7F7F9",
"= 	c #DEDEE0",
"- 	c #686869",
"; 	c #6E6E6E",
"> 	c #9B9B9D",
", 	c #949496",
"' 	c #525253",
") 	c #939395",
"! 	c #F1F1F3",
"~ 	c #F4F4F7",
"{ 	c #F3F3F5",
"] 	c #A9A9AB",
"^ 	c #7B7B7C",
"/ 	c #E5E5E7",
"( 	c #FEFEFF",
"_ 	c #FDFDFF",
": 	c #C8C8CA",
"< 	c #666667",
"[ 	c #D4D4D5",
"} 	c #AEAEAF",
"| 	c #BFBFC1",
"1 	c #D6D6D8",
"2 	c #69696A",
"3 	c #454545",
"4 	c #484848",
"5 	c #919192",
"6 	c #7D7D7D",
"7 	c #DFDFE1",
"8 	c #DEDEDF",
"9 	c #6F6F70",
"0 	c #BCBCBD",
"a 	c #000000",
"b 	c #010101",
"c 	c #343435",
"d 	c #E2E2E4",
"e 	c #EAEAEC",
"f 	c #737375",
"g 	c #F8F8FA",
"h 	c #787879",
"i 	c #DCDCDE",
"j 	c #59595A",
"k 	c #FBFBFE",
"l 	c #CECED0",
"m 	c #EEEEF0",
"n 	c #656566",
"o 	c #909091",
"p 	c #DBDBDD",
"q 	c #CFCFD1",
"r 	c #979799",
"s 	c #ECECEE",
"t 	c #818182",
"u 	c #FBFBFD",
"v 	c #747475",
"w 	c #C6C6C7",
"x 	c #E3E3E5",
"y 	c #EFEFF1",
"z 	c #636364",
"A 	c #949495",
"B 	c #DDDDE0",
"C 	c #CDCDCF",
"D 	c #9A9A9C",
"E 	c #E1E1E3",
"F 	c #FCFCFE",
"G 	c #8C8C8D",
"H 	c #D1D1D2",
"I 	c #6A6A6B",
"J 	c #C3C3C4",
"K 	c #E8E8EA",
"L 	c #7B7B7B",
"M 	c #F9F9FB",
"N 	c #B6B6B7",
"O 	c #B8B8B9",
"P 	c #49494A",
"Q 	c #4F4F4F",
"R 	c #A0A0A1",
"S 	c #F2F2F4",
"T 	c #727274",
"U 	c #E2E2E3",
"V 	c #B3B3B5",
"W 	c #737374",
"X 	c #FFFFFF",
"Y 	c #FAFAFC",
"Z 	c #BEBEC0",
"` 	c #6B6B6B",
" .	c #D9D9DB",
"..	c #79797A",
"+.	c #5B5B5C",
"@.	c #8E8E8F",
"#.	c #828283",
"$.	c #4A4A4B",
"%.	c #A3A3A4",
"&.	c #E9E9EB",
". . . . + + @ # $ % & . . . . . ",
". . . * = - ; > , ' ) ! ~ . . . ",
". . { ] ^ / ( . * _ : < [ + . . ",
". * } | & 1 2 3 4 5 % { 6 7 . . ",
"+ 8 9 * 0 a a b b a c d e f g . ",
"& h = i a a a a a a a j k 5 l + ",
"m n _ o a a a a a a b a p q r & ",
"s t u v a a a a a a a a w x ^ * ",
"y z _ A a a a a a a b a B C D & ",
"& 6 p E a a a a a a a n F G H + ",
"+ E I * J a a b a a 3 / K L M . ",
". * N O + = ^ P Q R . S T U . . ",
". . . V W i X M Y Y Z `  .+ . . ",
". . . * / ..+.@.#.$.%.. . . . . ",
". . . . + & m K &.S & . . . . . "};
