/* XPM */
static char * tri_state_xpm[] = {
"17 17 3 1",
" 	c #FFFFFF",
"+	c #000000",
"@	c #909090",
"                 ",
"  +++++++++++++  ",
" +             + ",
" + @@@@@@@@@@@ + ",
" + @@@@@@@@@@@ + ",
" + @@@@@@@@@@@ + ",
" + @@@@@@@@@@@ + ",
" + @@@@@@@@@@@ + ",
" + @@@@@@@@@@@ + ",
" + @@@@@@@@@@@ + ",
" + @@@@@@@@@@@ + ",
" + @@@@@@@@@@@ + ",
" + @@@@@@@@@@@ + ",
" + @@@@@@@@@@@ + ",
" +             + ",
"  +++++++++++++  ",
"                 "};
