/* XPM */
static char * tri_state_sm_xpm[] = {
"16 15 92 2",
"  	c None",
". 	c #F4F4F6",
"+ 	c #F5F5F7",
"@ 	c #EBEBED",
"# 	c #E6E6E8",
"$ 	c #E7E7E9",
"% 	c #F0F0F2",
"& 	c #F6F6F8",
"* 	c #F7F7F9",
"= 	c #DEDEE0",
"- 	c #686869",
"; 	c #6E6E6E",
"> 	c #9B9B9D",
", 	c #949496",
"' 	c #525253",
") 	c #939395",
"! 	c #F1F1F3",
"~ 	c #F4F4F7",
"{ 	c #F3F3F5",
"] 	c #A9A9AB",
"^ 	c #7B7B7C",
"/ 	c #E5E5E7",
"( 	c #FEFEFF",
"_ 	c #FDFDFF",
": 	c #C8C8CA",
"< 	c #666667",
"[ 	c #D4D4D5",
"} 	c #AEAEAF",
"| 	c #BFBFC1",
"1 	c #D6D6D8",
"2 	c #909090",
"3 	c #919192",
"4 	c #7D7D7D",
"5 	c #DFDFE1",
"6 	c #DEDEDF",
"7 	c #6F6F70",
"8 	c #BCBCBD",
"9 	c #E2E2E4",
"0 	c #EAEAEC",
"a 	c #737375",
"b 	c #F8F8FA",
"c 	c #787879",
"d 	c #DCDCDE",
"e 	c #FBFBFE",
"f 	c #CECED0",
"g 	c #EEEEF0",
"h 	c #656566",
"i 	c #909091",
"j 	c #DBDBDD",
"k 	c #CFCFD1",
"l 	c #979799",
"m 	c #ECECEE",
"n 	c #818182",
"o 	c #FBFBFD",
"p 	c #747475",
"q 	c #C6C6C7",
"r 	c #E3E3E5",
"s 	c #EFEFF1",
"t 	c #636364",
"u 	c #949495",
"v 	c #DDDDE0",
"w 	c #CDCDCF",
"x 	c #9A9A9C",
"y 	c #E1E1E3",
"z 	c #FCFCFE",
"A 	c #8C8C8D",
"B 	c #D1D1D2",
"C 	c #6A6A6B",
"D 	c #C3C3C4",
"E 	c #E8E8EA",
"F 	c #7B7B7B",
"G 	c #F9F9FB",
"H 	c #B6B6B7",
"I 	c #B8B8B9",
"J 	c #A0A0A1",
"K 	c #F2F2F4",
"L 	c #727274",
"M 	c #E2E2E3",
"N 	c #B3B3B5",
"O 	c #737374",
"P 	c #FFFFFF",
"Q 	c #FAFAFC",
"R 	c #BEBEC0",
"S 	c #6B6B6B",
"T 	c #D9D9DB",
"U 	c #79797A",
"V 	c #5B5B5C",
"W 	c #8E8E8F",
"X 	c #828283",
"Y 	c #4A4A4B",
"Z 	c #A3A3A4",
"` 	c #E9E9EB",
". . . . + + @ # $ % & . . . . . ",
". . . * = - ; > , ' ) ! ~ . . . ",
". . { ] ^ / ( . * _ : < [ + . . ",
". * } | & 1 2 2 2 3 % { 4 5 . . ",
"+ 6 7 * 8 2 2 2 2 2 2 9 0 a b . ",
"& c = d 2 2 2 2 2 2 2 2 e 3 f + ",
"g h _ i 2 2 2 2 2 2 2 2 j k l & ",
"m n o p 2 2 2 2 2 2 2 2 q r ^ * ",
"s t _ u 2 2 2 2 2 2 2 2 v w x & ",
"& 4 j y 2 2 2 2 2 2 2 2 z A B + ",
"+ y C * D 2 2 2 2 2 2 / E F G . ",
". * H I + = ^ 2 2 J . K L M . . ",
". . . N O d P G Q Q R S T + . . ",
". . . * / U V W X Y Z . . . . . ",
". . . . + & g E ` K & . . . . . "};
